<?xml version="1.0" encoding="UTF-8" standalone="no"?>
<!-- Created with Inkscape (http://www.inkscape.org/) -->

<svg
   xmlns:dc="http://purl.org/dc/elements/1.1/"
   xmlns:cc="http://creativecommons.org/ns#"
   xmlns:rdf="http://www.w3.org/1999/02/22-rdf-syntax-ns#"
   xmlns:svg="http://www.w3.org/2000/svg"
   xmlns="http://www.w3.org/2000/svg"
   xmlns:sodipodi="http://sodipodi.sourceforge.net/DTD/sodipodi-0.dtd"
   xmlns:inkscape="http://www.inkscape.org/namespaces/inkscape"
   width="56.962311mm"
   height="56.962311mm"
   viewBox="0 0 56.96231 56.962312"
   version="1.1"
   id="svg8"
   sodipodi:docname="lt-squared.svg"
   inkscape:version="0.92.5 (2060ec1f9f, 2020-04-08)"
   inkscape:export-filename="/media/other/favicon.png"
   inkscape:export-xdpi="28.538168"
   inkscape:export-ydpi="28.538168">
  <defs
     id="defs2" />
  <sodipodi:namedview
     id="base"
     pagecolor="#ffffff"
     bordercolor="#666666"
     borderopacity="1.0"
     inkscape:pageopacity="0"
     inkscape:pageshadow="2"
     inkscape:zoom="1.0957623"
     inkscape:cx="112.29123"
     inkscape:cy="98.208742"
     inkscape:document-units="px"
     inkscape:current-layer="layer1"
     showgrid="false"
     objecttolerance="1"
     inkscape:window-width="1302"
     inkscape:window-height="704"
     inkscape:window-x="1280"
     inkscape:window-y="283"
     inkscape:window-maximized="1"
     inkscape:pagecheckerboard="true"
     fit-margin-top="0"
     fit-margin-left="0"
     fit-margin-right="0"
     fit-margin-bottom="0"
     showguides="false"
     inkscape:snap-bbox="true"
     inkscape:bbox-paths="false"
     inkscape:snap-bbox-midpoints="true"
     inkscape:snap-object-midpoints="true">
    <inkscape:grid
       type="xygrid"
       id="grid154" />
  </sodipodi:namedview>
  <metadata
     id="metadata5">
    <rdf:RDF>
      <cc:Work
         rdf:about="">
        <dc:format>image/svg+xml</dc:format>
        <dc:type
           rdf:resource="http://purl.org/dc/dcmitype/StillImage" />
        <dc:title></dc:title>
      </cc:Work>
    </rdf:RDF>
  </metadata>
  <g
     inkscape:groupmode="layer"
     id="layer1"
     inkscape:label="l+t"
     style="display:inline"
     transform="translate(-25.774246,18.344566)">
    <g
       style="display:inline"
       id="g1460-1-7"
       clip-path="none"
       transform="translate(-192.1577,58.59921)">
      <g
         id="g683"
         inkscape:export-filename="/media/other/L&amp;T icon.png"
         inkscape:export-xdpi="28.538164"
         inkscape:export-ydpi="28.538164">
        <path
           sodipodi:nodetypes="ccc"
           inkscape:connector-curvature="0"
           id="path841-4-1-6-6"
           d="m 248.42838,-39.37528 c 14.85325,-16.141015 1.09343,-24.878951 -5.76843,-16.035173 -13.64854,-2.857832 -14.43977,13.239176 5.76843,16.035173 z"
           style="display:inline;opacity:1;fill:#fe2323;fill-opacity:1;fill-rule:evenodd;stroke:#ffffff;stroke-width:6.40291643;stroke-linecap:butt;stroke-linejoin:miter;stroke-miterlimit:4;stroke-dasharray:none;stroke-opacity:1" />
        <path
           style="display:inline;opacity:1;fill:#fe1bab;fill-opacity:1;fill-rule:evenodd;stroke:#ffffff;stroke-width:6.9003334;stroke-linecap:butt;stroke-linejoin:miter;stroke-miterlimit:4;stroke-dasharray:none;stroke-opacity:1"
           d="m 262.00253,-41.165317 -1.15067,-10.74369 c -0.0206,-0.192125 -0.49846,-0.838101 -0.77834,-0.819529 -1.10147,0.07309 -1.81297,0.231001 -2.54294,0.611254 -1.50803,0.785546 -2.82576,-5.361093 -1.78702,-6.600391 0.98501,-1.175191 7.69293,-1.917638 12.2229,-1.769211 1.65481,0.05422 3.10626,1.587797 3.37014,3.004878 0.22391,1.202519 0.0892,3.392453 -1.07338,3.428397 l -2.71983,0.08409 c -1.16996,0.03617 -0.9383,1.005023 -0.8309,1.622088 l 1.80881,10.392304 c 0.22436,1.289049 -0.44685,2.434058 -3.93026,2.801856 -2.21727,0.234111 -2.50337,-1.217107 -2.58851,-2.012051 z"
           id="path863-6-5-1-3-1-1"
           inkscape:connector-curvature="0"
           sodipodi:nodetypes="cssssssssssssc" />
        <path
           sodipodi:nodetypes="sssssssssss"
           inkscape:connector-curvature="0"
           id="path863-6-82-6-4-6-8"
           d="m 221.38809,-53.924325 0.55338,13.973209 c 0.0672,1.699033 1.85853,3.610135 3.47352,3.528625 l 8.83626,-0.445973 c 0.7933,-0.04004 1.68339,-1.282766 1.65402,-2.723906 -0.0249,-1.222935 -0.5846,-3.173314 -1.74718,-3.139016 l -4.56509,0.134681 c -1.17,0.03451 -1.1273,-0.90728 -1.14744,-1.533298 l -0.33909,-10.543092 c -0.0421,-1.307751 -0.84607,-2.535084 -4.33076,-2.179561 -2.16329,0.22071 -2.42692,1.935827 -2.38762,2.928336 z"
           style="display:inline;opacity:1;fill:#fe1bab;fill-opacity:1;fill-rule:evenodd;stroke:#ffffff;stroke-width:6.9003334;stroke-linecap:butt;stroke-linejoin:miter;stroke-miterlimit:4;stroke-dasharray:none;stroke-opacity:1" />
        <g
           transform="translate(187.51177,-69.171867)"
           id="g1253-3-7">
          <path
             sodipodi:nodetypes="sssssssssss"
             inkscape:connector-curvature="0"
             id="path863-6-8-6-2-0-9"
             d="m 34.528117,15.761933 0.553384,13.973209 c 0.06724,1.699033 1.858525,3.610135 3.473515,3.528625 l 8.836266,-0.445973 c 0.793298,-0.04004 1.683385,-1.282766 1.654014,-2.723906 -0.02493,-1.222935 -0.584598,-3.173314 -1.747178,-3.139016 l -4.565084,0.134681 c -1.170006,0.03451 -1.127304,-0.90728 -1.14744,-1.533298 L 41.246496,15.013163 c -0.04207,-1.307751 -0.846068,-2.535083 -4.330752,-2.17956 -2.163299,0.220709 -2.426926,1.935826 -2.387621,2.928335 z"
             style="display:inline;opacity:1;fill:#6d055e;fill-opacity:1;fill-rule:evenodd;stroke:none;stroke-width:0.35714972px;stroke-linecap:butt;stroke-linejoin:miter;stroke-opacity:1" />
          <path
             sodipodi:nodetypes="sssssssssss"
             inkscape:connector-curvature="0"
             id="path863-6-7-9-8-2"
             d="m 33.547167,14.827067 0.553384,13.973209 c 0.06724,1.699033 1.858525,3.610135 3.473515,3.528625 l 8.836266,-0.445973 c 0.793298,-0.04004 1.683385,-1.282766 1.654014,-2.723906 -0.02493,-1.222935 -0.584598,-3.173314 -1.747178,-3.139016 l -4.565084,0.134681 c -1.170006,0.03451 -1.127304,-0.90728 -1.14744,-1.533298 L 40.265546,14.078297 c -0.04207,-1.307751 -0.846068,-2.535084 -4.330752,-2.179561 -2.163299,0.22071 -2.426926,1.935827 -2.387621,2.928335 z"
             style="display:inline;opacity:1;fill:#b64397;fill-opacity:1;fill-rule:evenodd;stroke:none;stroke-width:0.35714972px;stroke-linecap:butt;stroke-linejoin:miter;stroke-opacity:1" />
        </g>
        <g
           transform="translate(132.21308,-89.025585)"
           style="display:inline;opacity:1"
           id="g861-6-6-0">
          <path
             style="fill:#c30101;fill-opacity:1;fill-rule:evenodd;stroke:none;stroke-width:0.26458332px;stroke-linecap:butt;stroke-linejoin:miter;stroke-opacity:1"
             d="m 116.62155,50.404356 c 14.85326,-16.141015 1.09343,-24.878951 -5.76843,-16.035173 -13.64853,-2.857832 -14.43977,13.239176 5.76843,16.035173 z"
             id="path841-6-0-1-2"
             inkscape:connector-curvature="0"
             sodipodi:nodetypes="ccc" />
          <path
             style="fill:#fe2323;fill-opacity:1;fill-rule:evenodd;stroke:none;stroke-width:0.26458332px;stroke-linecap:butt;stroke-linejoin:miter;stroke-opacity:1"
             d="M 116.2153,49.650303 C 131.06856,33.509288 117.30873,24.771352 110.44687,33.61513 96.798336,30.757298 96.007102,46.854306 116.2153,49.650303 Z"
             id="path841-7-3-3"
             inkscape:connector-curvature="0"
             sodipodi:nodetypes="ccc" />
          <path
             style="fill:#ffffff;fill-opacity:1;fill-rule:nonzero;stroke:none;stroke-width:0.26458332;stroke-linecap:butt;stroke-linejoin:miter;stroke-miterlimit:4;stroke-dasharray:none;stroke-opacity:1"
             d="m 116.62849,37.458028 c 0,0 -0.46543,1.389805 -2.0343,3.218934 -4.15869,4.848564 -4.55992,3.240592 -4.49502,2.407059 0.0942,-1.210694 0.86141,-2.214252 2.50574,-3.790805 0.87539,-0.839304 3.72245,-3.284307 3.53715,-4.998131 -0.3138,-2.902314 -4.97991,-1.037022 -5.27091,3.009229 -0.20579,2.861584 4.15253,7.050985 5.91345,7.021294 0.69573,-0.739944 1.02683,-1.80508 0.81233,-2.735622 -1.26426,1.363229 -3.95638,-2.176424 -4.61655,-3.459874 -0.76678,-1.490742 -0.10785,-4.152185 1.39196,-4.437649 1.046,-0.199088 -0.19197,2.100669 -1.06736,2.939973 -1.64433,1.576553 -4.83174,4.032347 -4.86326,6.896752 -0.0149,1.357803 2.14109,5.114421 6.66543,-0.236638 1.04796,-1.23945 2.21778,-3.090708 2.33368,-3.76154 0.13938,-0.806762 -0.3528,-1.58854 -0.81234,-2.072982 z"
             id="path824-6-4-7"
             inkscape:connector-curvature="0"
             sodipodi:nodetypes="csssssccssssssc" />
        </g>
        <g
           transform="translate(182.89807,-68.937272)"
           id="g1249-3-5">
          <path
             style="display:inline;opacity:1;fill:#b62f8f;fill-opacity:1;fill-rule:evenodd;stroke:none;stroke-width:0.35714972px;stroke-linecap:butt;stroke-linejoin:miter;stroke-opacity:1"
             d="m 79.756259,28.286346 -1.150672,-10.74369 c -0.02058,-0.192125 -0.498454,-0.838101 -0.778335,-0.819529 -1.101474,0.07309 -1.812967,0.231001 -2.542945,0.611254 -1.508027,0.785546 -2.825751,-5.361093 -1.787014,-6.600391 0.985006,-1.1751916 7.69293,-1.9176386 12.222901,-1.7692116 1.65481,0.05422 3.10626,1.5877976 3.37013,3.0048786 0.22392,1.202519 0.0892,3.392453 -1.07338,3.428397 l -2.71983,0.08409 c -1.16995,0.03617 -0.9383,1.005023 -0.83089,1.622088 l 1.80881,10.392304 c 0.22435,1.289049 -0.44685,2.434058 -3.93026,2.801856 -2.21727,0.234111 -2.503374,-1.217107 -2.588515,-2.012051 z"
             id="path863-6-5-4-2-9-9"
             inkscape:connector-curvature="0"
             sodipodi:nodetypes="cssssssssssssc" />
          <path
             style="display:inline;opacity:1;fill:#fe1bab;fill-opacity:1;fill-rule:evenodd;stroke:none;stroke-width:0.35714972px;stroke-linecap:butt;stroke-linejoin:miter;stroke-opacity:1"
             d="M 78.775309,27.35148 77.624638,16.60779 c -0.02058,-0.192125 -0.498454,-0.838101 -0.778335,-0.819529 -1.101474,0.07309 -1.812967,0.231001 -2.542945,0.611254 -1.508027,0.785546 -2.825752,-5.361093 -1.787014,-6.6003906 0.985005,-1.175192 7.692929,-1.917639 12.2229,-1.769212 1.65481,0.05422 3.10626,1.587798 3.37013,3.0048786 0.22392,1.202519 0.0892,3.392453 -1.07338,3.428397 l -2.71983,0.08409 c -1.16995,0.03617 -0.9383,1.005023 -0.83089,1.622088 l 1.80881,10.392304 c 0.22435,1.289049 -0.44685,2.434058 -3.93026,2.801856 -2.21727,0.234111 -2.503374,-1.217107 -2.588515,-2.012051 z"
             id="path863-6-5-9-7-2"
             inkscape:connector-curvature="0"
             sodipodi:nodetypes="cssssssssssssc" />
        </g>
      </g>
    </g>
  </g>
</svg>
